<svg xmlns="http://www.w3.org/2000/svg" width="120" height="64" viewBox="0 0 120 64" xmlns:xlink="http://www.w3.org/1999/xlink"><defs><path id="a" d="M11.065.305H.346V6.23h10.719z"/></defs><g fill="none" fill-rule="evenodd"><path d="M37.579 45.19h3.053V26.677h-3.053V45.19zm-.705-24.902c0-.606.215-1.134.646-1.582a2.11 2.11 0 0 1 1.585-.673c.627 0 1.155.224 1.586.673.43.448.645.976.645 1.582 0 .66-.209 1.2-.626 1.622-.417.422-.953.632-1.605.632-.653 0-1.188-.21-1.605-.632-.417-.422-.626-.962-.626-1.622zm8.73 10.78c0-.844-.027-1.636-.079-2.374a28.589 28.589 0 0 1-.078-2.018h2.896c0 .502.014 1.003.04 1.504.025.501.039 1.016.039 1.542h.078c.209-.448.502-.883.88-1.305a6.367 6.367 0 0 1 1.352-1.127 7.18 7.18 0 0 1 1.76-.791 7.253 7.253 0 0 1 2.115-.297c1.2 0 2.238.185 3.111.553.875.37 1.6.885 2.173 1.543.574.66.998 1.458 1.272 2.394.275.936.411 1.958.411 3.065V45.19h-3.053V34.074c0-1.556-.339-2.782-1.017-3.68-.68-.895-1.736-1.344-3.171-1.344-.992 0-1.847.172-2.564.514a4.555 4.555 0 0 0-1.762 1.464c-.457.633-.797 1.385-1.018 2.255-.221.87-.333 1.834-.333 2.888v9.02h-3.053V31.067zM74.61 45.19h-3.367l-7.477-18.513h3.563l5.715 14.518h.078l5.441-14.518h3.289zm23.174-10.918c-.053-1.582-.562-2.849-1.527-3.798-.966-.95-2.297-1.424-3.993-1.424-1.696 0-3.067.475-4.11 1.424-1.044.95-1.67 2.216-1.88 3.798h11.51zm2.622 7.555c-1.095 1.425-2.296 2.42-3.6 2.987-1.306.567-2.82.851-4.542.851-1.436 0-2.727-.257-3.876-.771-1.148-.514-2.12-1.207-2.916-2.077-.796-.87-1.409-1.899-1.84-3.086a11.046 11.046 0 0 1-.645-3.798c0-1.424.235-2.736.704-3.936.47-1.2 1.122-2.228 1.958-3.085a8.799 8.799 0 0 1 2.974-1.998c1.149-.475 2.401-.712 3.759-.712 1.278 0 2.452.217 3.522.653a7.63 7.63 0 0 1 2.76 1.898c.77.831 1.363 1.847 1.781 3.047.418 1.2.627 2.565.627 4.094v.989H86.275c.052.791.24 1.55.568 2.274.325.726.75 1.36 1.272 1.9.522.54 1.135.968 1.84 1.285a5.573 5.573 0 0 0 2.31.475c1.33 0 2.452-.238 3.366-.712.913-.475 1.735-1.174 2.466-2.097l2.31 1.82zm4.697-1.503c.6.766 1.26 1.372 1.977 1.82.718.449 1.625.673 2.72.673.47 0 .946-.052 1.43-.159a4.25 4.25 0 0 0 1.311-.514c.391-.237.705-.533.94-.89.235-.356.352-.784.352-1.286 0-.5-.111-.91-.332-1.226a2.929 2.929 0 0 0-.881-.81 4.976 4.976 0 0 0-1.253-.535 23.43 23.43 0 0 0-1.449-.356 30.246 30.246 0 0 1-2.466-.633 7.966 7.966 0 0 1-2.055-.93 4.356 4.356 0 0 1-1.41-1.483c-.352-.606-.528-1.385-.528-2.334 0-.896.196-1.688.587-2.374a5.124 5.124 0 0 1 1.566-1.7 7.647 7.647 0 0 1 2.192-1.03 8.854 8.854 0 0 1 2.505-.355c1.306 0 2.512.264 3.622.791 1.108.528 1.977 1.384 2.603 2.571l-2.545 1.701a4.77 4.77 0 0 0-1.546-1.602c-.64-.408-1.415-.613-2.33-.613-.417 0-.84.053-1.271.158-.43.106-.816.264-1.155.475-.34.212-.62.482-.842.81-.222.33-.332.707-.332 1.128 0 .396.123.732.372 1.01.247.276.587.52 1.017.731.431.212.926.396 1.488.554.561.158 1.141.29 1.742.395.808.159 1.579.364 2.31.614.73.25 1.37.587 1.917 1.008.549.423.98.95 1.292 1.583.314.633.47 1.41.47 2.334 0 1.055-.209 1.952-.626 2.69a5.222 5.222 0 0 1-1.664 1.8 7.255 7.255 0 0 1-2.349 1.009c-.874.21-1.768.316-2.681.316-1.566 0-2.916-.244-4.052-.732-1.135-.487-2.16-1.39-3.072-2.71l2.426-1.899z" fill="#2E2E31" fill-opacity=".759"/><path fill="#FFE853" d="M18.975 35.856a3.703 3.703 0 0 0-1.583 2.348c-.2.972-.014 1.963.524 2.793a3.656 3.656 0 0 0 5.19 1 3.688 3.688 0 0 0 1.48-2.28c.2-.97.015-1.962-.523-2.791a3.649 3.649 0 0 0-2.325-1.6 3.62 3.62 0 0 0-2.763.53"/><path fill="#FFE853" d="M20.973 46.134h.052c.314-.002.968-.007 1.643-.162 2.093-.486 3.972-2.098 4.906-4.204a3.314 3.314 0 0 0-.49-3.34 3.207 3.207 0 0 0-1.398-.999 5.02 5.02 0 0 1 .138 2.549 4.933 4.933 0 0 1-2.127 3.156 4.905 4.905 0 0 1-5.89-.362 3.24 3.24 0 0 0 .377 1.644c.69 1.277 1.934 1.724 2.789 1.718"/><path fill="#FFA460" d="M14.26 36.043a3.637 3.637 0 0 0-2.69-.833 3.643 3.643 0 0 0-2.484 1.332 3.746 3.746 0 0 0 .495 5.228 3.623 3.623 0 0 0 2.689.833 3.638 3.638 0 0 0 2.484-1.332c.625-.766.917-1.73.824-2.717a3.7 3.7 0 0 0-1.318-2.511"/><path fill="#FFA460" d="M5.135 41.012l.016.05c.095.303.292.933.64 1.538 1.078 1.877 3.157 3.215 5.425 3.492a3.24 3.24 0 0 0 3.01-1.46 3.26 3.26 0 0 0 .531-1.646 4.87 4.87 0 0 1-2.367.887 4.84 4.84 0 0 1-3.613-1.12c-1.721-1.435-2.23-3.813-1.401-5.792a3.17 3.17 0 0 0-1.443.851 3.277 3.277 0 0 0-.798 3.2"/><path fill="#2ED3E2" d="M12.527 31.54a3.74 3.74 0 0 0-.023-2.843 3.67 3.67 0 0 0-2.005-1.993c-1.878-.768-4.024.152-4.784 2.05-.016.038-.03.076-.045.115-.323.888-.3 1.852.067 2.727a3.668 3.668 0 0 0 2.005 1.993c.91.372 1.908.364 2.813-.023a3.672 3.672 0 0 0 1.972-2.027"/><path fill="#2ED3E2" d="M5.092 24.242l-.043.03c-.257.182-.792.562-1.259 1.079-1.447 1.604-2.083 4.01-1.662 6.279a3.27 3.27 0 0 0 2.284 2.462 3.172 3.172 0 0 0 1.712.017 4.95 4.95 0 0 1-1.55-2.015 4.979 4.979 0 0 1-.03-3.82 4.94 4.94 0 0 1 5.045-3.092 3.197 3.197 0 0 0-1.237-1.134 3.19 3.19 0 0 0-3.26.194"/><path fill="#3D7CE2" d="M16.397 28.549a3.64 3.64 0 0 0 2.63-1.005 3.703 3.703 0 0 0 1.158-2.59c.063-2.046-1.533-3.764-3.557-3.828a3.63 3.63 0 0 0-2.63 1.005 3.71 3.71 0 0 0-1.159 2.59 3.71 3.71 0 0 0 .995 2.659 3.632 3.632 0 0 0 2.563 1.169"/><g transform="translate(10.866 17.335)"><mask id="b" fill="#fff"><use xlink:href="#a"/></mask><path fill="#3D7CE2" d="M9.735 1.64l-.042-.03c-.258-.18-.796-.557-1.437-.82-1.99-.818-4.444-.589-6.405.595a3.296 3.296 0 0 0-.92 4.647 4.966 4.966 0 0 1 1.336-2.166A4.848 4.848 0 0 1 5.8 2.516c2.232.07 4.073 1.636 4.616 3.714.334-.451.562-.985.626-1.566.16-1.446-.604-2.533-1.308-3.024" mask="url(#b)"/></g><path fill="#65DE96" d="M20.21 31.245c.268.96.876 1.751 1.73 2.24a3.616 3.616 0 0 0 2.792.347c1.952-.547 3.1-2.597 2.56-4.57l-.035-.118a3.68 3.68 0 0 0-1.697-2.122 3.617 3.617 0 0 0-2.79-.347 3.654 3.654 0 0 0-2.217 1.749 3.722 3.722 0 0 0-.344 2.82"/><path fill="#65DE96" d="M30.504 32.458l.016-.05c.094-.303.29-.934.348-1.63.182-2.163-.763-4.463-2.464-6.004a3.223 3.223 0 0 0-4.664.493 4.868 4.868 0 0 1 2.443.645 4.92 4.92 0 0 1 2.325 3.01 5.02 5.02 0 0 1-2.138 5.558 3.144 3.144 0 0 0 1.665.138 3.232 3.232 0 0 0 2.47-2.16"/></g></svg>