<svg xmlns="http://www.w3.org/2000/svg" width="120" height="64" viewBox="0 0 120 64" xmlns:xlink="http://www.w3.org/1999/xlink"><defs><linearGradient id="a" x1="7.888%" x2="92.117%" y1="50%" y2="50%"><stop stop-color="#6EAB24" offset="0%"/><stop stop-color="#006150" offset="100%"/></linearGradient><path id="b" d="M7.718 1.351c.464.211.963.552 1.431 1.03.439.443.781.91.99 1.35-.168.69-1.3 1.676-2.568 2.54-.003.17-.003.329-.003.456 0 .166 0 .33.003.5h.002c.007.283.021.567.038.849.401.244.832.523 1.058.694-.236.392.3 1.07.656.54.01.388.207.766.561.974.136.076.286.13.429.142h.266c.336-.042.654-.237.841-.56a1.146 1.146 0 0 0-.41-1.555 1.103 1.103 0 0 0-1.108-.008c.27-.577-.573-.71-.792-.305-.343-.15-1.03-.518-1.504-.79C9.1 6.431 10.71 5.82 11.446 6.033c.272.408.503.94.664 1.545.167.65.216 1.256.163 1.766.3.395.627.699.934.898.183-.97.291-1.995.291-3.055 0-1.282-.14-2.512-.405-3.647a15.474 15.474 0 0 0-2.919-2.182C9.268.828 8.334.414 7.42.088c.012.37.114.806.298 1.263m2.475 8.399a.519.519 0 0 1-.19-.713.512.512 0 0 1 .704-.197.533.533 0 0 1 .194.723.531.531 0 0 1-.45.263.491.491 0 0 1-.258-.076m-6.67-8.392A15.427 15.427 0 0 0 .608 3.54C.424 4.324.3 5.16.238 6.022v2.287c.046.666.133 1.31.251 1.933.317-.2.636-.503.933-.898-.053-.51-.003-1.115.167-1.766.159-.606.384-1.137.66-1.545.735-.214 2.344.401 3.834 1.172-.473.27-1.16.647-1.496.793-.22-.405-1.064-.272-.79.305a1.11 1.11 0 0 0-1.112.008 1.155 1.155 0 0 0-.413 1.555 1.12 1.12 0 0 0 2.094-.555c.361.53.898-.149.663-.541.217-.17.647-.442 1.038-.683a19 19 0 0 0 .04-.87c0-.169.006-.324.006-.49 0-.133 0-.292-.006-.465-1.261-.861-2.38-1.842-2.546-2.53.211-.44.552-.911.99-1.352a4.849 4.849 0 0 1 1.427-1.029c.184-.457.288-.892.3-1.263-.92.326-1.85.74-2.755 1.27m-.729 8.205a.533.533 0 0 1 .194-.723.524.524 0 0 1 .518.91.517.517 0 0 1-.26.076.54.54 0 0 1-.452-.263M5.723 2.97c0 .419.215.775.543.977-.629.05-.325.857.136.85.044.423.07 1.396.07 1.93 0 1.987-.27 4.41-.94 5.068-.485.04-1.056-.029-1.653-.188-.64-.175-1.187-.438-1.59-.737a3.741 3.741 0 0 0-1.24.364 15.97 15.97 0 0 0 2.47 1.783 15.61 15.61 0 0 0 3.22 1.438h.2a15.613 15.613 0 0 0 3.223-1.438 15.558 15.558 0 0 0 2.463-1.783 3.74 3.74 0 0 0-1.23-.364 4.936 4.936 0 0 1-1.596.737c-.595.16-1.17.229-1.649.188-.673-.658-.944-3.08-.944-5.068 0-.534.023-1.507.073-1.93.453.007.765-.8.132-.85.331-.202.554-.558.554-.977 0-.628-.504-1.139-1.127-1.139-.62 0-1.115.511-1.115 1.14m.6 0a.52.52 0 0 1 .515-.529c.29 0 .519.236.519.528a.52.52 0 0 1-.519.527.52.52 0 0 1-.515-.527"/></defs><g fill="none" fill-rule="evenodd"><path fill="#006150" d="M59.388 43.474v-.02c0-1.657-1.197-3.015-2.847-3.015-1.649 0-2.821 1.333-2.821 2.995v.02c0 1.663 1.197 3.015 2.84 3.015 1.65 0 2.828-1.335 2.828-2.995zm-6.514 0v-.02c0-2.012 1.491-3.777 3.687-3.777 2.198 0 3.672 1.742 3.672 3.757.008.012.008.012 0 .02 0 2.014-1.492 3.78-3.692 3.78-2.193 0-3.667-1.742-3.667-3.76zm8.664 3.637h4.878v-.765h-4.06v-6.543h-.818v7.308zm8.734-.765c1.822 0 2.987-1.25 2.987-2.872v-.02c0-1.615-1.165-2.892-2.987-2.892h-1.69v5.784h1.69zm-2.507-6.543h2.507c2.27 0 3.832 1.574 3.832 3.63v.021c0 2.06-1.563 3.657-3.832 3.657h-2.507v-7.308zm7.906 7.308h1.56V42.37l2.007 3.09h.038l2.032-3.12v4.771h1.575v-7.308h-1.711l-1.896 3.092-1.893-3.092h-1.712v7.308zm8.37-3.135v-4.173h1.588v4.132c0 1.192.584 1.81 1.553 1.81.968 0 1.557-.596 1.557-1.754v-4.188h1.587v4.12c0 2.217-1.226 3.302-3.162 3.302-1.937 0-3.123-1.095-3.123-3.25zm9.478 3.135h1.588v-5.83h2.201v-1.478h-5.985v1.478h2.196v5.83zm4.837-3.135v-4.173h1.583v4.132c0 1.192.593 1.81 1.561 1.81.97 0 1.553-.596 1.553-1.754v-4.188h1.591v4.12c0 2.217-1.229 3.302-3.165 3.302-1.94 0-3.123-1.095-3.123-3.25zm9.252.079l.96-2.374.959 2.374h-1.919zm-2.842 3.056h1.618l.658-1.643h3.05l.66 1.643h1.66l-3.09-7.363h-1.466l-3.09 7.363zm8.557-7.308h1.58v5.845h3.599v1.463h-5.179v-7.308z"/><path fill="gray" d="M5.323 40.612H.986v2.592h3.878v.746H.986v3.161H.177v-7.255h5.146v.756zm7.486 6.5l-2.2-2.965c1.127-.207 1.945-.912 1.945-2.125 0-1.306-1.013-2.166-2.588-2.166h-3.08v7.255h.809v-2.82H9.74l2.076 2.82h.992zm-1.073-5.059c0 .943-.768 1.504-1.843 1.504H7.695v-2.945h2.21c1.155 0 1.83.54 1.83 1.441zm5.87 5.183c-2.18 0-3.642-1.731-3.642-3.742 0-2.01 1.483-3.763 3.662-3.763 2.18 0 3.643 1.731 3.643 3.743 0 2.011-1.485 3.762-3.663 3.762zm0-6.748c-1.637 0-2.804 1.327-2.804 2.986 0 1.658 1.187 3.007 2.824 3.007 1.637 0 2.804-1.328 2.804-2.987s-1.187-3.006-2.824-3.006zm11.414.746v5.877h.808v-7.255h-.817l-2.61 3.96-2.61-3.96h-.817v7.255h.788v-5.866l2.608 3.876h.041l2.609-3.887z"/><use fill="url(#a)" xlink:href="#b" transform="translate(34.728 35.904)"/><path fill="#BD4D9C" d="M105.307 13.84v.798c1.382-1.407 3.157-2.316 5.186-2.32 5.1 0 8.126 3.58 8.126 8.39v9.478c0 2.044-3.1 2.044-3.1 0v-9.478c0-3.346-1.858-5.324-5.023-5.324-3 .005-5.138 2.11-5.19 5.303v9.5c0 2.044-3.101 2.043-3.101 0l.001-16.347c0-2.044 3.101-2.043 3.101 0"/><path fill="#26B1C9" d="M100.247 21.835v-.194c-.093-4.455-2.9-9.323-8.67-9.323-5.086 0-8.705 4.025-8.917 9.017a30.747 30.747 0 0 0-.017 1.026c.117 5.656 4.295 9.398 9.272 9.398 2.764 0 5.016-1.119 6.654-2.697 1.482-1.426-.682-3.622-2.163-2.196-1.134 1.091-2.633 1.826-4.491 1.826-2.942 0-5.511-1.913-6.064-5.202h12.846c1.06 0 1.576-.806 1.55-1.592v-.063zm-3.243-1.411H85.871c.542-3.033 2.846-5.04 5.707-5.04 2.978 0 4.904 2.204 5.426 5.04z"/><path fill="#95B93F" d="M82.485 14.486l-7.063 16.06c-.057.267-.192.5-.376.69a1.425 1.425 0 0 1-1.163.511 1.425 1.425 0 0 1-1.163-.511 1.42 1.42 0 0 1-.376-.69l-7.065-16.06c-.825-1.874 2.019-3.097 2.843-1.223l5.761 13.095 5.759-13.094c.824-1.875 3.668-.652 2.843 1.222"/><path fill="#FEC548" d="M64.865 21.835v-.194c-.093-4.455-2.9-9.323-8.67-9.323-5.086 0-8.706 4.025-8.917 9.017-.005.115-.012.412-.015.675-.002.137-.002.351-.002.351.117 5.656 4.295 9.398 9.272 9.398 2.763 0 5.016-1.119 6.654-2.697 1.481-1.426-.682-3.622-2.163-2.196-1.134 1.091-2.634 1.826-4.491 1.826-2.942 0-5.511-1.913-6.064-5.202h12.845c1.06 0 1.577-.806 1.55-1.592l.001-.063zm-3.243-1.411H50.49c.542-3.033 2.846-5.04 5.707-5.04 2.978 0 4.903 2.204 5.426 5.04z"/><path fill="#F2692E" d="M42.243 17.14c-.993-1.223-2.436-1.738-3.93-1.738-2.648 0-3.616 1.326-3.616 2.303 0 1.705 3.164 2.343 4.343 2.677 2.972.806 6.591 1.955 6.591 5.724 0 3.649-3.507 5.634-6.934 5.634-2.279 0-4.65-.837-6.334-2.567-1.433-1.473.801-3.598 2.235-2.126 1.021 1.05 2.545 1.627 4.099 1.627 2.64 0 3.833-1.402 3.833-2.568 0-1.815-3.044-2.424-4.335-2.774-2.9-.82-6.6-1.899-6.6-5.627 0-3.372 3.165-5.369 6.718-5.369 2.207 0 4.638.779 6.348 2.885 1.295 1.594-1.124 3.513-2.418 1.92"/><path fill="#000" d="M16.482 16.4c1.282-2.162 3.201-3.918 6.14-4.107a7.647 7.647 0 0 1 1.183.018c2.505.231 4.6 1.81 5.162 4.148.197.708.256 1.487.133 2.292-.253 1.434-1.02 2.75-2.397 4.244-.677.866-1.552 1.647-2.349 2.4l-3.002 2.885h6.978c2.054 0 2.054 3.07 0 3.07H17.534c-1.734 0-2.317-1.44-1.068-2.64l5.764-5.54c.69-.652 1.542-1.365 2.102-2.134 1.191-1.282 1.61-2.143 1.728-2.782a2.502 2.502 0 0 0-.076-1.028c-.2-.865-1.046-1.727-2.464-1.858a4.507 4.507 0 0 0-.7-.011c-1.587.102-2.723.981-3.686 2.605-1.045 1.762-3.697.2-2.652-1.563M3.436 17.962c.962-1.623 2.099-2.503 3.685-2.605.233-.015.466-.01.7.011 1.419.131 2.264.994 2.465 1.859.089.31.127.671.076 1.027-.117.64-.537 1.5-1.728 2.782-.56.769-1.412 1.482-2.102 2.135L.767 28.71c-1.248 1.2-.665 2.64 1.07 2.64h10.795c2.054 0 2.054-3.07 0-3.07H5.653l3.003-2.885c.796-.753 1.672-1.534 2.349-2.4 1.377-1.494 2.143-2.81 2.397-4.244a5.473 5.473 0 0 0-.133-2.292c-.562-2.338-2.658-3.917-5.162-4.148a7.559 7.559 0 0 0-1.184-.018c-2.938.19-4.858 1.945-6.14 4.106-1.044 1.763 1.608 3.325 2.653 1.563"/></g></svg>